<svg xmlns="http://www.w3.org/2000/svg" viewBox="0 0 140.49 130.79"><defs><style>.cls-1{fill:#64c3ff}.cls-2{fill:#4023de}.cls-3{fill:#ff8978}.cls-4{fill:#ffc900}.cls-5{fill:#fff}.cls-6{fill:#60dbd9}</style></defs><g id="Layer_2" data-name="Layer 2"><g id="Layer_1-2" data-name="Layer 1"><path d="M84.83,59.34v-22a37.32,37.32,0,0,0-74.64,0v22H0v70.71H95.53V59.34Zm-61.93-22a24.61,24.61,0,0,1,49.22,0v22H22.9Z" class="cls-1"/><rect width="113.73" height="38.32" x="26.76" y="75.42" class="cls-2" rx="19.16"/><circle cx="71.74" cy="94.63" r="7.25" class="cls-3"/><rect width="15.13" height="5.72" x="42.23" y="91.77" class="cls-4"/><rect width="18.2" height="1.96" x="83.02" y="93.35" class="cls-5" transform="translate(-39.72 92.77) rotate(-45)"/><rect width="1.96" height="18.2" x="91.14" y="85.23" class="cls-5" transform="translate(-39.72 92.77) rotate(-45)"/><path d="M124,90.86a9.28,9.28,0,0,1-18.56,0" class="cls-6"/><rect width="42.8" height="2.19" x="66.95" y="128.6"/><path d="M30.26,44.44c-.34-8.48,1.52-15,5.53-19.27a15.81,15.81,0,0,1,10.28-5.05l.07,2.19a13.8,13.8,0,0,0-8.78,4.39c-3.58,3.86-5.23,9.8-4.91,17.65Z"/></g></g></svg>